# xmcd
#
# Track frame offsets:
#	150
#	17509
#	31121
#	44737
#	59425
#	76061
#	90918
#	108641
#	122282
#	137898
#	149743
#	160488
#	174384
#	192289
#	202401
#	214608
#	234561
#	249606
#
# Disc length: 3541 seconds
#
# Revision: 0
# Processed by: cddbd v1.5.2PL0 Copyright (c) Steve Scherf et al.
# Submitted via: audiograbber 1.83.01
#
DISCID=000dd312
DTITLE=Various Artist - Country Music Messe 2012 CD 1
DYEAR=2012
DGENRE=Country
TTITLE0=Apple Jack - I Don´t Even Know Your Name
TTITLE1=Dianna Corcoran - Wrong Girl
TTITLE2=J. Tex - Misery
TTITLE3=Memphis Sky - Pay Your Dues
TTITLE4=Wolf Schubert-K. and The Sacred Blues Band - Lost
TTITLE5=Michael Lonstar - Highway Guardian Angel
TTITLE6=Spare Line - Delia Says
TTITLE7=Gitty - You Need A Brand New Start
TTITLE8=Andreas Oscar - Die Nadel Im Heu
TTITLE9=Hermann Lammers Meyer - Barstool Paradise
TTITLE10=Midnight Hustle - The Only Fool Is You
TTITLE11=Jamestown Ferry - Gulf Coast Highway
TTITLE12=Kayleigh Leith - Outside
TTITLE13=Trailerpark Idlers - If Whiskey Don´t Kill Me
TTITLE14=Mountarillo - A Ticket To Texas
TTITLE15=Rebel Bunch - Song About A Man
TTITLE16=Tom Reno - Wonderland
TTITLE17=Mitch Keller - Jedes Mal
EXTD=
EXTT0=
EXTT1=
EXTT2=
EXTT3=
EXTT4=
EXTT5=
EXTT6=
EXTT7=
EXTT8=
EXTT9=
EXTT10=
EXTT11=
EXTT12=
EXTT13=
EXTT14=
EXTT15=
EXTT16=
EXTT17=
PLAYORDER=
